<?xml version="1.0" standalone="no"?>
<!DOCTYPE svg PUBLIC "-//W3C//DTD SVG 20010904//EN"
 "http://www.w3.org/TR/2001/REC-SVG-20010904/DTD/svg10.dtd">
<svg version="1.0" xmlns="http://www.w3.org/2000/svg"
 width="180.000000pt" height="180.000000pt" viewBox="0 0 180.000000 180.000000"
 preserveAspectRatio="xMidYMid meet">

<g transform="translate(0.000000,180.000000) scale(0.100000,-0.100000)"
fill="#000000" stroke="none">
<path d="M515 1391 c-108 -8 -147 -27 -176 -82 -29 -57 -42 -203 -35 -384 8
-225 36 -282 148 -304 155 -30 822 -20 886 13 38 20 69 58 83 105 16 55 23
353 10 451 -15 111 -35 149 -95 179 -47 23 -51 24 -389 26 -188 2 -382 0 -432
-4z m485 -382 c0 -170 3 -166 -82 -121 -29 16 -90 48 -135 71 -46 24 -83 46
-83 50 0 4 39 28 88 54 48 25 112 59 142 75 30 17 58 28 63 25 4 -2 7 -71 7
-154z"/>
<path d="M344 536 c-3 -7 -4 -33 -2 -57 3 -44 3 -44 46 -47 25 -2 42 1 42 7 0
6 -16 11 -35 11 -34 0 -35 1 -35 40 0 39 1 40 35 40 19 0 35 5 35 10 0 16 -80
12 -86 -4z"/>
<path d="M452 493 l3 -58 38 -3 c21 -2 37 1 37 7 0 6 -13 11 -30 11 -29 0 -30
1 -30 50 0 28 -5 50 -10 50 -7 0 -10 -22 -8 -57z"/>
<path d="M564 537 c-3 -8 -4 -34 -2 -58 l3 -44 50 0 50 0 0 55 0 55 -48 3
c-34 2 -49 -1 -53 -11z m86 -47 c0 -39 -1 -40 -35 -40 -34 0 -35 1 -35 40 0
39 1 40 35 40 34 0 35 -1 35 -40z"/>
<path d="M698 533 c-6 -65 -5 -94 3 -99 5 -3 9 11 9 30 0 20 5 36 10 36 6 0
10 -3 10 -7 1 -5 12 -21 25 -38 l25 -30 -2 65 c-1 41 -3 51 -5 28 -5 -47 -15
-48 -43 -3 -24 40 -29 42 -32 18z"/>
<path d="M804 536 c-3 -7 -4 -33 -2 -57 3 -44 3 -44 46 -47 25 -2 42 1 42 7 0
6 -16 11 -35 11 -28 0 -35 4 -35 19 0 15 8 21 38 24 l37 4 -37 1 c-51 3 -54
32 -3 32 19 0 35 5 35 10 0 16 -80 12 -86 -4z"/>
<path d="M965 540 c-3 -5 3 -10 14 -10 18 0 21 -6 21 -50 0 -27 5 -50 10 -50
6 0 10 23 10 50 0 38 4 50 15 50 8 0 15 5 15 10 0 6 -18 10 -39 10 -22 0 -43
-4 -46 -10z"/>
<path d="M1082 493 l3 -58 40 0 40 0 3 58 c2 35 -1 57 -8 57 -5 0 -10 -22 -10
-50 0 -47 -2 -50 -25 -50 -23 0 -25 3 -25 50 0 28 -5 50 -10 50 -7 0 -10 -22
-8 -57z"/>
<path d="M1200 490 l0 -61 43 3 42 3 0 55 0 55 -42 3 -43 3 0 -61z m70 25 c0
-10 -10 -15 -30 -15 -29 0 -38 9 -23 23 13 13 53 7 53 -8z m0 -45 c0 -15 -7
-20 -29 -20 -27 0 -31 7 -22 38 1 1 12 2 26 2 18 0 25 -5 25 -20z"/>
<path d="M1314 536 c-3 -7 -4 -33 -2 -57 3 -42 5 -44 37 -47 18 -2 38 1 44 7
8 8 -1 11 -32 11 -35 0 -42 3 -39 18 2 11 16 19 43 23 l40 6 -42 2 c-31 1 -43
5 -43 16 0 10 11 15 35 15 19 0 35 5 35 10 0 16 -70 12 -76 -4z"/>
</g>
</svg>
